<?xml version="1.0" encoding="UTF-8" standalone="no"?>
<!-- Created with Inkscape (http://www.inkscape.org/) -->

<svg
   xmlns:dc="http://purl.org/dc/elements/1.1/"
   xmlns:cc="http://creativecommons.org/ns#"
   xmlns:rdf="http://www.w3.org/1999/02/22-rdf-syntax-ns#"
   xmlns:svg="http://www.w3.org/2000/svg"
   xmlns="http://www.w3.org/2000/svg"
   xmlns:sodipodi="http://sodipodi.sourceforge.net/DTD/sodipodi-0.dtd"
   xmlns:inkscape="http://www.inkscape.org/namespaces/inkscape"
   id="svg2989"
   version="1.1"
   inkscape:version="0.48.4 r9939"
   width="73"
   height="79"
   sodipodi:docname="castle.png">
  <metadata
     id="metadata2995">
    <rdf:RDF>
      <cc:Work
         rdf:about="">
        <dc:format>image/svg+xml</dc:format>
        <dc:type
           rdf:resource="http://purl.org/dc/dcmitype/StillImage" />
        <dc:title></dc:title>
      </cc:Work>
    </rdf:RDF>
  </metadata>
  <defs
     id="defs2993" />
  <sodipodi:namedview
     pagecolor="#ffffff"
     bordercolor="#666666"
     borderopacity="1"
     objecttolerance="10"
     gridtolerance="10"
     guidetolerance="10"
     inkscape:pageopacity="0"
     inkscape:pageshadow="2"
     inkscape:window-width="640"
     inkscape:window-height="480"
     id="namedview2991"
     showgrid="false"
     inkscape:zoom="2.9873418"
     inkscape:cx="36.5"
     inkscape:cy="39.5"
     inkscape:window-x="915"
     inkscape:window-y="204"
     inkscape:window-maximized="0"
     inkscape:current-layer="svg2989" />
  <path
     style="fill:#000000"
     d="m 10.665254,72.618744 c 0,-1.226921 -1.1989127,-2.728727 -2.9936772,-3.75 -2.7108063,-1.542528 -2.9942748,-2.186675 -3,-6.817126 -0.00525,-4.248943 0.4586905,-5.579313 2.7436774,-7.867557 1.5125,-1.514657 3.7624998,-3.139882 4.9999998,-3.611613 3.222695,-1.22848 3.03528,-4.907194 -0.25,-4.907194 -2.2499998,0 -2.4999998,-0.4 -2.4999998,-4 0,-3.6 0.25,-4 2.4999998,-4 2,0 2.5,-0.5 2.5,-2.5 0,-2.190476 0.433333,-2.5 3.5,-2.5 l 3.5,0 0,8.5 0,8.5 3,0 3,0 0,-11.5 0,-11.5 -3,0 c -2.666667,0 -3,-0.333333 -3,-3 0,-2.622326 0.354121,-3 2.812909,-3 1.776558,0 3.802905,-1.033334 5.5,-2.804719 2.273272,-2.372785 2.687091,-3.681806 2.687091,-8.4999997 l 0,-5.6952811 4,0 4,0 0,5.8129088 c 0,5.063474 0.361601,6.159344 2.804719,8.5 1.625935,1.557745 3.937507,2.687091 5.5,2.687091 2.32809,0 2.695281,0.408704 2.695281,3 0,2.666667 -0.333333,3 -3,3 l -3,0 0,11.5 0,11.5 3,0 3,0 0,-8.5 0,-8.5 3.5,0 c 3.066667,0 3.5,0.309524 3.5,2.5 0,2 0.5,2.5 2.5,2.5 2.25,0 2.5,0.4 2.5,4 0,3.6 -0.25,4 -2.5,4 -3.28528,0 -3.472695,3.678714 -0.25,4.907194 1.2375,0.471731 3.4875,2.096956 5,3.611613 2.284987,2.288244 2.748931,3.618614 2.743677,7.867557 -0.0057,4.630451 -0.289193,5.274598 -3,6.817126 -1.794764,1.021273 -2.993677,2.523079 -2.993677,3.75 0,1.943375 -0.579548,2.04651 -11.5,2.04651 l -11.5,0 0,-5.377555 c 0,-6.09669 -1.851086,-8.820849 -4.5,-6.622445 -0.993044,0.824153 -1.5,3.062346 -1.5,6.622445 l 0,5.377555 -11.5,0 c -10.920452,0 -11.5,-0.103135 -11.5,-2.04651 z m 17,-12.45349 c 0,-3.333333 -0.166667,-3.5 -3.5,-3.5 -3.333333,0 -3.5,0.166667 -3.5,3.5 0,3.333333 0.166667,3.5 3.5,3.5 3.333333,0 3.5,-0.166667 3.5,-3.5 z m 25,0 c 0,-3.333333 -0.166667,-3.5 -3.5,-3.5 -3.333333,0 -3.5,0.166667 -3.5,3.5 0,3.333333 0.166667,3.5 3.5,3.5 3.333333,0 3.5,-0.166667 3.5,-3.5 z m -12,-24.5 c 0,-2.833333 -0.222222,-3 -4,-3 -3.777778,0 -4,0.166667 -4,3 0,2.833333 0.222222,3 4,3 3.777778,0 4,-0.166667 4,-3 z"
     id="path2999"
     inkscape:connector-curvature="0" />
</svg>
