<?xml version="1.0" encoding="UTF-8" standalone="no"?>
<!-- Created with Inkscape (http://www.inkscape.org/) -->

<svg
   xmlns:dc="http://purl.org/dc/elements/1.1/"
   xmlns:cc="http://creativecommons.org/ns#"
   xmlns:rdf="http://www.w3.org/1999/02/22-rdf-syntax-ns#"
   xmlns:svg="http://www.w3.org/2000/svg"
   xmlns="http://www.w3.org/2000/svg"
   xmlns:sodipodi="http://sodipodi.sourceforge.net/DTD/sodipodi-0.dtd"
   xmlns:inkscape="http://www.inkscape.org/namespaces/inkscape"
   id="svg2"
   version="1.1"
   inkscape:version="0.48.4 r9939"
   width="71"
   height="79"
   sodipodi:docname="chocobo.png">
  <metadata
     id="metadata8">
    <rdf:RDF>
      <cc:Work
         rdf:about="">
        <dc:format>image/svg+xml</dc:format>
        <dc:type
           rdf:resource="http://purl.org/dc/dcmitype/StillImage" />
        <dc:title></dc:title>
      </cc:Work>
    </rdf:RDF>
  </metadata>
  <defs
     id="defs6" />
  <sodipodi:namedview
     pagecolor="#ffffff"
     bordercolor="#666666"
     borderopacity="1"
     objecttolerance="10"
     gridtolerance="10"
     guidetolerance="10"
     inkscape:pageopacity="0"
     inkscape:pageshadow="2"
     inkscape:window-width="640"
     inkscape:window-height="744"
     id="namedview4"
     showgrid="false"
     inkscape:zoom="6.7605634"
     inkscape:cx="35.5"
     inkscape:cy="39.5"
     inkscape:window-x="831"
     inkscape:window-y="134"
     inkscape:window-maximized="0"
     inkscape:current-layer="svg2" />
  <path
     style="fill:#000000"
     d="m 29.542816,70.613323 c -0.612106,-1.093773 -0.61741,-2.373464 -0.01451,-3.5 0.781369,-1.459993 2.291052,-1.775823 8.488536,-1.775823 6.638449,0 7.498685,-0.208866 7.207564,-1.75 -0.255902,-1.354687 -1.951455,-1.975893 -7.505987,-2.75 -6.839151,-0.953137 -7.317024,-1.195821 -10.197315,-5.178624 -2.612196,-3.612086 -2.99999,-4.9693 -2.860265,-10.01044 0.0889,-3.2075 -0.1831,-6.389619 -0.604449,-7.071377 -1.057213,-1.710607 -5.369695,-1.559381 -6.367324,0.223283 C 16.960136,40.102869 9.5411617,43.3375 7.2826069,43.3375 5.763807,43.3375 4.3816865,26.056192 7.8230142,18.53784 10.02851,13.719439 15.353047,9.6704663 19.626215,7.8881813 c 4.774692,-1.991464 5.121576,-1.956769 4.49237,0.449319 -0.643278,2.4598987 -0.53478,2.4612907 4.184513,0.05369 3.845199,-1.961677 14.105236,-3.883942 14.105236,-2.642683 0,0.367768 -0.9,2.432815 -2,4.5889927 -2.558846,5.015752 -2.544769,7 0.04966,7 2.539858,0 7.95034,2.717569 7.95034,3.993285 0,0.518059 -2.42793,2.77503 -5.395401,5.015492 -4.485022,3.386225 -5.473887,4.699366 -5.860557,7.782395 -0.725876,5.78762 0.514411,7.208828 6.291142,7.208828 4.679505,0 4.964816,-0.149348 4.964816,-2.598871 0,-4.205481 2.653645,-8.620995 8.889742,-14.792022 l 5.851421,-5.790364 1.129419,3.239852 c 1.624128,4.658977 1.434305,6.028455 -1.417275,10.224932 l -2.546693,3.747796 3.034961,0.606992 c 2.670556,0.534111 2.963044,0.922455 2.435997,3.234339 -0.32943,1.44504 -1.849337,3.752346 -3.377572,5.127346 -1.528235,1.375 -3.069437,3.767154 -3.424895,5.315898 -0.453176,1.974504 -1.684776,3.249806 -4.121806,4.268061 l -3.475518,1.452165 2.080895,4.07889 c 2.377424,4.660136 2.045964,6.424556 -1.511389,8.045395 -1.379864,0.628707 -2.772818,1.974814 -3.095453,2.991348 -0.512556,1.614921 -1.70799,1.848243 -9.469532,1.848243 -7.369492,0 -9.047317,-0.293757 -9.84782,-1.724177 z M 22.908334,27.3375 c 0,-1.832728 -0.601738,-2.585447 -2.254471,-2.820137 -1.352279,-0.192025 -2.495586,0.308199 -2.856989,1.25 -0.995668,2.594671 0.399883,4.739185 2.856989,4.390274 1.652733,-0.23469 2.254471,-0.987409 2.254471,-2.820137 z"
     id="path2987"
     inkscape:connector-curvature="0"
     sodipodi:nodetypes="ssssssssssasssssssssssscsscssssscssssssssss" />
</svg>
