<?xml version="1.0" encoding="UTF-8" standalone="no"?>
<!-- Created with Inkscape (http://www.inkscape.org/) -->

<svg
   xmlns:dc="http://purl.org/dc/elements/1.1/"
   xmlns:cc="http://creativecommons.org/ns#"
   xmlns:rdf="http://www.w3.org/1999/02/22-rdf-syntax-ns#"
   xmlns:svg="http://www.w3.org/2000/svg"
   xmlns="http://www.w3.org/2000/svg"
   xmlns:sodipodi="http://sodipodi.sourceforge.net/DTD/sodipodi-0.dtd"
   xmlns:inkscape="http://www.inkscape.org/namespaces/inkscape"
   id="svg3037"
   version="1.1"
   inkscape:version="0.48.4 r9939"
   width="83"
   height="79"
   sodipodi:docname="spell.png">
  <metadata
     id="metadata3043">
    <rdf:RDF>
      <cc:Work
         rdf:about="">
        <dc:format>image/svg+xml</dc:format>
        <dc:type
           rdf:resource="http://purl.org/dc/dcmitype/StillImage" />
        <dc:title></dc:title>
      </cc:Work>
    </rdf:RDF>
  </metadata>
  <defs
     id="defs3041" />
  <sodipodi:namedview
     pagecolor="#ffffff"
     bordercolor="#666666"
     borderopacity="1"
     objecttolerance="10"
     gridtolerance="10"
     guidetolerance="10"
     inkscape:pageopacity="0"
     inkscape:pageshadow="2"
     inkscape:window-width="640"
     inkscape:window-height="480"
     id="namedview3039"
     showgrid="false"
     inkscape:zoom="2.9873418"
     inkscape:cx="41.5"
     inkscape:cy="39.5"
     inkscape:window-x="889"
     inkscape:window-y="505"
     inkscape:window-maximized="0"
     inkscape:current-layer="svg3037" />
  <path
     style="fill:#000000"
     d="M 41.5,75.281335 C 39.85,75.050885 34.118851,73.762074 28.764114,72.41731 23.409376,71.072547 16.227034,69.679503 12.803354,69.321658 L 6.5784801,68.67103 14.794534,66.496888 c 4.518829,-1.195778 8.48839,-2.446479 8.821247,-2.779336 0.332857,-0.332857 -1.411362,-3.217975 -3.876043,-6.411373 C 17.275058,54.112781 14.728749,49.925 14.081275,48 12.975434,44.712234 10.058458,26.584138 10.01832,22.75 c -0.047362,-4.524199 1.984957,-0.63467 5.952689,11.392478 3.687391,11.177368 4.948224,13.771625 8.432334,17.350148 3.331461,3.421739 5.337051,4.512799 10.737398,5.841251 6.297002,1.549024 6.922661,1.536587 12.087169,-0.240264 11.060308,-3.805304 14.731618,-6.888788 16.927176,-14.216907 0.980126,-3.27137 0.808973,-5.174209 -1.134633,-12.614601 C 59.916956,18.381494 58.614724,16 55.221747,16 51.101069,16 31.745621,23.671542 29.75,26.09574 27.625404,28.676611 27.559895,30.270158 29.433296,33.79966 31.352681,37.415794 40.390686,45 42.780603,45 c 3.497593,0 9.098036,-8.721361 6.968153,-10.851244 -1.912568,-1.912568 -3.413671,-1.324635 -6.527225,2.556498 l -2.972458,3.705254 -0.718498,-3.271303 c -0.98332,-4.477026 0.950473,-8.655356 5.229891,-11.300182 l 3.525152,-2.178663 4.357191,4.61161 C 55.270223,31.052801 57,33.827209 57,35.260518 c 0,1.307315 -1.743978,5.271009 -3.875506,8.808209 -3.56103,5.90941 -4.235951,6.502965 -8.317521,7.314782 C 37.979891,52.741404 34.089906,50.374825 26.407336,40.189589 22.883301,35.517568 20,31.125601 20,30.429664 20,28.876138 24.610021,19.480213 27.173931,15.808102 29.79092,12.059968 38.181209,7.6024162 46.623255,5.4751593 c 7.056112,-1.778024 7.155085,-1.7751559 10.5,0.3042695 8.633083,5.3669082 16.972052,17.0678842 20.793825,29.1772342 l 2.248691,7.125013 -5.121912,9.209162 C 67.58394,64.70372 63.72319,69.544841 57.758477,72.965546 52.555664,75.949309 49.449929,76.391677 41.5,75.281335 z"
     id="path3047"
     inkscape:connector-curvature="0" />
</svg>
