<?xml version="1.0" encoding="UTF-8" standalone="no"?>
<!-- Created with Inkscape (http://www.inkscape.org/) -->

<svg
   xmlns:dc="http://purl.org/dc/elements/1.1/"
   xmlns:cc="http://creativecommons.org/ns#"
   xmlns:rdf="http://www.w3.org/1999/02/22-rdf-syntax-ns#"
   xmlns:svg="http://www.w3.org/2000/svg"
   xmlns="http://www.w3.org/2000/svg"
   xmlns:sodipodi="http://sodipodi.sourceforge.net/DTD/sodipodi-0.dtd"
   xmlns:inkscape="http://www.inkscape.org/namespaces/inkscape"
   id="svg3013"
   version="1.1"
   inkscape:version="0.48.4 r9939"
   width="81"
   height="79"
   sodipodi:docname="monster.png">
  <metadata
     id="metadata3019">
    <rdf:RDF>
      <cc:Work
         rdf:about="">
        <dc:format>image/svg+xml</dc:format>
        <dc:type
           rdf:resource="http://purl.org/dc/dcmitype/StillImage" />
        <dc:title></dc:title>
      </cc:Work>
    </rdf:RDF>
  </metadata>
  <defs
     id="defs3017" />
  <sodipodi:namedview
     pagecolor="#ffffff"
     bordercolor="#666666"
     borderopacity="1"
     objecttolerance="10"
     gridtolerance="10"
     guidetolerance="10"
     inkscape:pageopacity="0"
     inkscape:pageshadow="2"
     inkscape:window-width="640"
     inkscape:window-height="480"
     id="namedview3015"
     showgrid="false"
     inkscape:zoom="2.9873418"
     inkscape:cx="40.5"
     inkscape:cy="39.5"
     inkscape:window-x="829"
     inkscape:window-y="378"
     inkscape:window-maximized="0"
     inkscape:current-layer="svg3013" />
  <path
     style="fill:#000000"
     d="m 63.623188,75.048482 c -1.324589,-0.968563 -1.680541,-2.388786 -1.44113,-5.75 C 62.464912,65.32736 62.886257,64.642002 66,63.08823 70.85358,60.666272 70.39709,59.007833 64.567247,57.883004 60.681699,57.133314 59.539432,57.21645 59.186712,58.274611 58.299908,60.935023 51.552911,67.523523 47.568214,69.620175 44.624206,71.169241 41.703797,71.76168 37,71.764063 30.037239,71.767563 25.621868,70.08992 20.847214,65.626631 l -2.652785,-2.479793 -2.692236,4.593954 C 13.295176,71.506781 12.292736,72.334746 9.940162,72.334746 6.8986172,72.334746 5,70.068926 5,66.43913 5,65.324226 6.8152818,62.614801 9.0339595,60.418186 l 4.0339595,-3.993845 0.591041,2.955203 c 0.325072,1.625361 0.98479,2.955202 1.46604,2.955202 1.308478,0 1.094656,-0.922824 -1.375,-5.934276 C 10.568247,49.944023 10.576842,37.640813 13.767309,31.624584 14.995289,29.308995 16,25.763772 16,23.746311 16,18.185554 21.196997,9.7548649 25.500343,8.3346325 27.386179,7.7122504 29.790266,6.0208876 30.842758,4.5760481 l 1.913622,-2.6269806 0.744399,3.3892246 c 0.64947,2.9570185 0.39155,3.670576 -2.022532,5.5954979 -3.767474,3.004079 -2.818622,5.603371 1.733696,4.749295 C 35.020374,15.343799 37.4,14.299418 38.5,13.36224 c 1.1,-0.937179 3.687835,-2.713666 5.750745,-3.9477483 2.06291,-1.2340822 4.42541,-3.2070046 5.25,-4.3842721 C 50.998457,2.8919358 51,2.8923932 51,5.4747349 c 0,1.4217509 -1.381805,4.323777 -3.070678,6.4489471 -1.688872,2.12517 -2.700976,3.987179 -2.24912,4.137798 C 47.513966,16.672735 62.071148,8.0896898 63.5509,5.5247564 l 1.551911,-2.6900107 -0.46584,4.3215065 c -0.417961,3.8773428 -1.59553,6.1393308 -7.265023,13.9553538 -2.1172,2.918794 -1.414376,3.547768 2.768393,2.477501 2.607227,-0.667125 3.950692,-1.943838 5.998663,-5.70061 l 2.639005,-4.840957 0.672072,3.059925 c 0.845079,3.84762 -0.70356,9.687393 -3.772908,14.227281 -1.301462,1.925 -2.666682,4.725011 -3.033821,6.222247 -1.215915,4.958649 3.436078,1.78001 8.356648,-5.709975 3.897995,-5.933442 4.539658,-6.520477 4.796442,-4.388094 0.371035,3.08114 -5.29169,18.120134 -7.589766,20.156805 -0.938672,0.831898 -2.569386,1.671499 -3.62381,1.865779 -3.856834,0.710634 -2.909736,2.853238 1.261221,2.853238 3.141811,0 4.459783,0.57085 6.083333,2.634859 1.139919,1.449172 2.104208,3.586672 2.142865,4.75 0.06871,2.067861 0.0895,2.070435 0.929715,0.115141 0.648894,-1.510058 0.876647,-0.852335 0.929715,2.6849 C 76.088539,72.106137 69.50183,79.34705 63.623188,75.048482 z M 44.717679,60.902807 c 6.433391,-3.08312 7.280644,-3.830425 8.335894,-7.352534 0.907917,-3.030357 0.900217,-4.433354 -0.03391,-6.178787 l -1.208549,-2.258193 -3.655557,3.562713 c -2.010556,1.959492 -7.645839,5.430699 -12.522851,7.713794 l -8.867293,4.151082 2.867293,1.890343 c 4.05625,2.674195 6.921327,2.383904 15.084973,-1.528418 z M 20.8,45.134746 C 23.428194,42.506552 21.858219,39.302477 17.25,37.889747 15.225556,37.269119 15,37.537541 15,40.567358 c 0,3.380192 1.448695,5.767388 3.5,5.767388 0.605,0 1.64,-0.54 2.3,-1.2 z m 23.738436,-2.218317 c 0.979707,-1.495222 1.465644,-3.99172 1.273053,-6.540306 L 45.5,32.254133 37.190355,37.760418 C 28.390832,43.591314 28.411167,43.473299 36,44.668609 c 5.653741,0.890516 6.986012,0.617119 8.538436,-1.75218 z"
     id="path3023"
     inkscape:connector-curvature="0" />
</svg>
