<?xml version="1.0" encoding="UTF-8" standalone="no"?>
<!-- Created with Inkscape (http://www.inkscape.org/) -->

<svg
   xmlns:dc="http://purl.org/dc/elements/1.1/"
   xmlns:cc="http://creativecommons.org/ns#"
   xmlns:rdf="http://www.w3.org/1999/02/22-rdf-syntax-ns#"
   xmlns:svg="http://www.w3.org/2000/svg"
   xmlns="http://www.w3.org/2000/svg"
   xmlns:sodipodi="http://sodipodi.sourceforge.net/DTD/sodipodi-0.dtd"
   xmlns:inkscape="http://www.inkscape.org/namespaces/inkscape"
   id="svg3025"
   version="1.1"
   inkscape:version="0.48.4 r9939"
   width="84"
   height="79"
   sodipodi:docname="ship.png">
  <metadata
     id="metadata3031">
    <rdf:RDF>
      <cc:Work
         rdf:about="">
        <dc:format>image/svg+xml</dc:format>
        <dc:type
           rdf:resource="http://purl.org/dc/dcmitype/StillImage" />
        <dc:title></dc:title>
      </cc:Work>
    </rdf:RDF>
  </metadata>
  <defs
     id="defs3029" />
  <sodipodi:namedview
     pagecolor="#ffffff"
     bordercolor="#666666"
     borderopacity="1"
     objecttolerance="10"
     gridtolerance="10"
     guidetolerance="10"
     inkscape:pageopacity="0"
     inkscape:pageshadow="2"
     inkscape:window-width="640"
     inkscape:window-height="480"
     id="namedview3027"
     showgrid="false"
     inkscape:zoom="2.9873418"
     inkscape:cx="42"
     inkscape:cy="39.5"
     inkscape:window-x="897"
     inkscape:window-y="439"
     inkscape:window-maximized="0"
     inkscape:current-layer="svg3025" />
  <path
     style="fill:#000000"
     d="M 28.922092,71.310649 C 26.646088,69.254417 22.971299,64.855835 20.755893,61.536023 15.847057,54.180074 10.430824,48.323674 6.75,46.391899 4.8446563,45.391933 4,44.164253 4,42.394865 4,40.047141 4.2622262,39.893486 7.25,40.49048 c 6.127155,1.224282 16.252832,4.792083 22.75,8.016004 3.575,1.77393 8.6375,3.538243 11.25,3.920695 L 46,53.122546 46,49.649171 C 46,46.370632 45.773444,46.137519 41.961161,45.493438 36.847099,44.629423 35.196396,42.172396 34.36113,34.181 33.735896,28.199086 33.623047,28 30.857544,28 28.349162,28 28,27.633431 28,25 l 0,-3 9,0 9,0 0,-3 C 46,16.238095 45.722222,16 42.5,16 39.277778,16 39,15.761905 39,13 39,10.238095 39.277778,10 42.5,10 45.566667,10 46,9.6904762 46,7.5 46,5.3888889 46.466667,5 49,5 c 2.533333,0 3,0.3888889 3,2.5 0,2.1904762 0.433333,2.5 3.5,2.5 3.222222,0 3.5,0.238095 3.5,3 0,2.761905 -0.277778,3 -3.5,3 -3.222222,0 -3.5,0.238095 -3.5,3 l 0,3 9,0 9,0 0,3 c 0,2.633431 -0.349162,3 -2.857544,3 -2.765503,0 -2.878352,0.199086 -3.503586,6.181 -0.835266,7.991396 -2.485969,10.448423 -7.600031,11.312438 C 52.218139,46.138941 52,46.365152 52,49.681736 l 0,3.50594 5.25,-0.628222 c 2.8875,-0.345522 7.3875,-0.879976 10,-1.187676 l 4.75,-0.559454 0,3.093838 c 0,1.760505 0.861928,3.955766 2,5.093838 2.656978,2.656978 2.693594,7 0.05902,7 -1.067541,0 -2.244874,-0.491707 -2.616297,-1.092682 -0.376367,-0.608973 -1.856561,1.272415 -3.343715,4.25 L 65.430604,74.5 49.245442,74.774627 33.06028,75.049254 28.922092,71.310649 z m 5.453774,-14.541885 c 0.838693,-1.331803 0.708272,-2.113198 -0.565275,-3.386745 -2.995707,-2.995706 -7.465121,0.919469 -4.764428,4.173605 1.554892,1.873529 3.869544,1.531801 5.329703,-0.78686 z M 46,34 c 0,-6 0,-6 -3,-6 -2.916667,0 -3,0.133333 -3,4.8 0,5.074294 1.239995,7.2 4.2,7.2 1.533333,0 1.8,-0.888889 1.8,-6 z m 10.8,4.8 c 0.66,-0.66 1.2,-3.36 1.2,-6 0,-4.666667 -0.08333,-4.8 -3,-4.8 -3,0 -3,0 -3,6 0,5.111111 0.266667,6 1.8,6 0.99,0 2.34,-0.54 3,-1.2 z"
     id="path3035"
     inkscape:connector-curvature="0" />
</svg>
