<?xml version="1.0" encoding="UTF-8" standalone="no"?>
<!-- Created with Inkscape (http://www.inkscape.org/) -->

<svg
   xmlns:dc="http://purl.org/dc/elements/1.1/"
   xmlns:cc="http://creativecommons.org/ns#"
   xmlns:rdf="http://www.w3.org/1999/02/22-rdf-syntax-ns#"
   xmlns:svg="http://www.w3.org/2000/svg"
   xmlns="http://www.w3.org/2000/svg"
   xmlns:sodipodi="http://sodipodi.sourceforge.net/DTD/sodipodi-0.dtd"
   xmlns:inkscape="http://www.inkscape.org/namespaces/inkscape"
   id="svg2"
   version="1.1"
   inkscape:version="0.48.4 r9939"
   width="68"
   height="79"
   sodipodi:docname="weapon.png">
  <metadata
     id="metadata8">
    <rdf:RDF>
      <cc:Work
         rdf:about="">
        <dc:format>image/svg+xml</dc:format>
        <dc:type
           rdf:resource="http://purl.org/dc/dcmitype/StillImage" />
        <dc:title></dc:title>
      </cc:Work>
    </rdf:RDF>
  </metadata>
  <defs
     id="defs6" />
  <sodipodi:namedview
     pagecolor="#ffffff"
     bordercolor="#666666"
     borderopacity="1"
     objecttolerance="10"
     gridtolerance="10"
     guidetolerance="10"
     inkscape:pageopacity="0"
     inkscape:pageshadow="2"
     inkscape:window-width="640"
     inkscape:window-height="480"
     id="namedview4"
     showgrid="false"
     inkscape:zoom="2.9873418"
     inkscape:cx="34"
     inkscape:cy="39.5"
     inkscape:window-x="985"
     inkscape:window-y="602"
     inkscape:window-maximized="0"
     inkscape:current-layer="svg2" />
  <path
     style="fill:#000000"
     d="m 40.946004,71.25 c -3.450707,-2.6125 -7.257301,-5.525564 -8.459097,-6.473475 -1.75762,-1.386315 -2.849106,-1.533036 -5.579394,-0.75 -6.720392,1.927383 -11.40319,1.248751 -15.051758,-2.181304 L 8.5,58.690441 l 3,-0.909687 C 19.985834,55.2076 19.895052,55.474931 14.245131,49.696961 2.8577087,38.051458 1.0256976,26.189184 8.8288813,14.62674 12.926161,8.5555543 19.537347,4 24.250791,4 c 3.390344,0 3.855983,0.2529468 3.221501,1.75 -3.315225,7.822245 -3.647484,9.794628 -2.512354,14.914049 1.225841,5.528532 6.996542,20.094392 9.436009,23.81749 1.434384,2.189147 1.640977,2.21566 6.791719,0.871638 6.726394,-1.75517 9.873932,-1.066464 11.98713,2.622878 l 1.674797,2.923954 -4.259355,0.63873 C 43.03982,52.670994 42.905478,53.326458 48.96584,59.46429 51.972052,62.50893 55.24569,65 56.240591,65 57.713577,65 60,68.4126 60,70.611104 60,71.261298 49.793556,75.977947 48.360009,75.990231 47.733014,75.995604 44.396712,73.8625 40.946004,71.25 z M 27.709625,50.755364 C 28.600691,50.067899 27.639861,48.152907 24.061179,43.483791 18.62423,36.390189 17.446055,33.381364 16.445744,24.035483 l -0.691912,-6.464517 -2.350657,2.948004 c -1.292861,1.621402 -2.6341,4.838143 -2.980532,7.148314 -0.8296897,5.53277 2.730985,13.444477 9.129107,20.284587 4.446,4.753134 5.265703,5.034829 8.157875,2.803493 z"
     id="path2987"
     inkscape:connector-curvature="0" />
</svg>
