<svg width="53.816mm" height="65.459mm" version="1.1" viewBox="0 0 53.816 65.459" xmlns="http://www.w3.org/2000/svg">
 <g transform="translate(-23.121,-16.323)">
  <path transform="translate(23.121,16.323)" d="m0.13397 21.16 3.2182-2.2717 0.76645 1.0878 2.3675 0.28385 1.4334-0.37911-0.24698-4.6033-0.75322-8.3601 1.6521-3.3518-0.30298-1.9525-1.2343-1.5295-6.8574 0.021487zm0.089158 1.7895 3.2366-1.8055 1.9327 0.11129 1.6005 1.4493 0.84247 0.15371 0.40989 1.522 0.58586 7.6356 1.3897 5.2388-0.85927 2.0999 0.50397 1.5077-0.50901 1.0466 1.0016 2.9856-0.79039 1.8004 0.27382 2.1704 0.16169 6.6998 1.0886 1.9676 0.90798 2.6387-0.01769 0.9987 0.7155 0.5606 0.19315 1.0652-1.2882 1.2766 0.51502 1.2604-11.929-0.01183zm14.211 42.342-0.21987-2.3253-0.78158-0.81894-0.41798-2.9551-0.14132-0.89476-1.1391-1.4006-0.27718-1.6207-0.10751-2.6803-0.55731-2.2893-0.50481-3.7504 1.2763-1.6471-1.005-2.301-0.21209-1.2708 0.10331-1.6875 0.49263-2.6551-0.89874-1.6837-0.83743-3.1994-0.37-7.0241 0.75259-1.8496 0.2839-1.3452-0.9256-1.5536 0.25143-1.8967 0.00987-1.9181 0.23044-2.051 0.65406-1.3986 3.1551-3.0316 1.3737-0.33976 1.2923 0.36202 0.95292 0.12221 0.81013-0.57032 1.375 0.46827 5.1053-3.1016 0.46388-0.12327 0.52988 0.70284 0.64434 1.8744 1.1856 0.94596 3.1738 3.3173 2.8267-0.0079 1.4401 0.62418 1.6352-0.18628-1.9857-0.21035-1.0362-0.75818-0.76608 0.27212-1.3887-0.095-1.5477-0.8705-1.4434-1.9613 0.93696-0.79074 2.7787 0.46291 1.0063 1.1369 1.4724 0.3889 0.53504 0.64886 1.7139 0.87061 1.669-0.06468 1.0037-0.35068 1.9692-1.6713 2.7407 0.65674 0.94714-0.10038 1.6255 0.52318 3.9231 0.09112 0.78001 0.10538 0.56557 0.6571 0.61212 0.7718 0.66168 0.51486 0.90631 1.3333-0.0184 2.5343-1.4792 1.3152-0.39021 2.2113-1.1998 1.6554 0.614 1.8722-0.88657 1.073-0.56612 2.2763-0.84877-0.05124-1.1299-0.92293-1.4698-2.0412-0.11142-1.6609-1.7228-2.6735-1.2485-1.3381-1.0666-0.65278-1.8748-2.5595 0.90674 2.1639 1.5476 1.3851 1.0088 0.9924-3.2661-0.49964-2.6491-1.1631 1.9395 1.4415 4.5193 0.66046 0.71814 1.424 0.87456 2.0541 0.87803 2.0893 1.1296 1.0099 1.1032 0.97948 0.68338-0.03481-1.3911 3.8623-0.73495 1.8832-0.68666 2.4791-0.51405 1.3599 0.33368 1.6057 1.691 3.6608-1.3939 2.818-0.32548 1.8874-0.16463 1.5694-0.9525 1.9428-1.8185 0.74294 1.2293 1.7211-0.47037 2.6026-0.56865 2.1604-0.86472 1.2431 0.23224 1.4447-2.4176 3.1141zm9.6007-65.078 1.2244 5.1383 0.57524 2.6378 0.6644 0.61652 4.2605 0.30861 3.6132 2.0672 1.1906 1.2692 2.8735-0.07728 2.2553-1.6732 1.6627 0.08231 1.5541 0.41797 1.4962-0.07191 1.5304 0.10751 2.7769-3.0499 1.5451-0.71784 1.251-0.36608 1.1916-0.81341 0.01986-5.8994zm-15.376-0.011275 0.22121 1.4649-0.031286 2.9624-1.0746 2.1132-0.13265 2.1918 0.98636 3.5354 3.0431-1.3977 2.6665-2.1149 3.5812-0.4084 0.96906-0.11528 1.373 0.70833 3.7172-2.5282 0.71354-1.5522-0.17443-1.7587-0.7911-2.617-1.2009-0.46532zm38.928 10.881 2.1488-2.4614 1.4508-0.88843 2.5107-1.0531-0.01621 3.831-0.81015 0.60571-0.48591 0.90462-0.76896 0.13345-0.75894-0.40433-0.0465-1.1284-1.7967 0.9919zm-5.7568 54.19 1.8609-2.4631-0.03108-1.9966 0.84382-1.8664 0.94933-4.073 0.08598-1.6977 0.64231-1.3328 0.60905-0.49504 0.66483-4.4618 1.2536-2.8197-1.4126-3.6747-0.33742-2.0345 1.262-3.8776 1.4556-3.9001 0.83156-1.8208v-1.2818l0.91596-1.6303-0.39142-2.6786 0.94446-0.99455 0.97106-2.8507 0.74947-0.35169 0.03534 46.317zm11.936-50.543-1.5729-1.7162 0.5294-0.51783 0.25454-0.71684 0.70571-0.6459z" style="stroke-width:.26458px;stroke:#000"/>
 </g>
</svg>
