<svg width="54.229mm" height="65.546mm" version="1.1" viewBox="0 0 54.229 65.546" xml:space="preserve" xmlns="http://www.w3.org/2000/svg"><g transform="translate(-23.121 -16.323)"><path d="m41.15 81.74-1.4146-1.5661-1.33 1.5761zm-7.0971-65.278c1.0748 1.2856 1.6552 1.6978 2.5602 2.5226l0.05949 1.5039 1.9181 2.2835-0.30944 6.7927 5.2088 3.9617 2.2804-0.32219 4.9692 4.6165 1.0427 2.7769 2.2654 0.45586 0.72203 0.86729 0.89279 0.42843 0.14101 3.8783-1.9297 1.9884-1.8617 0.55437-5.4425 4.294-2.637 0.81552-4.8174-0.52578-2.7854 2.299-1.7543 0.20746-3.0975 1.6963-8.2275-3.7245 0.0099-37.389zm43.179 0.0071-0.0028 32.241-1.6913 2.981-2.5412 1.2304-1.2358 1.2702-2.2345 3.4533-1.6063 1.1346 2.3844-1.2617 1.9606-0.46049 2.1947-2.6505 2.7613-0.54019-0.0094 27.849-8.8704 0.0203-4.9662-4.3147 0.19084 2.6915 1.8184 1.6322-22.755-0.03486-2.0939-1.7198 0.10345-0.43943 1.3373-1.6284 1.9811-0.0065 1.0987-2.7753 2.9473-3.2368 0.0658-0.98535-0.28542-1.733-0.04912-0.99826-0.12424-0.88836-1.1157-1.0454-2.0331-2.2369 1.5843 2.4067 0.39228 1.0949 0.9183 0.60688-0.2822 1.1022 0.40859 1.6324-3.4527 3.8674-1.181 0.88406-0.74009 1.5431-7.3635 4.5668-11.534-0.0212 0.11743-24.644 1.9358-0.59804 6.5744 1.4777 2.8062-1.5148 1.6411 0.10353 2.6699-2.3287 4.2178 0.33571 3.8709-1.0983 2.739-1.439 2.3481-0.04636 2.3871-3.2548 1.9884-2.1421 3.4444-1.745 0.43616-4.9128-1.089-1.8551-2.8669 3.0612-1.3807-0.80702-2.2453-0.73555-1.2575-2.0861-3.6635-2.7858-1.7187-2.1452-2.5833-0.23218-4.2414-2.6656-0.02936-3.5642 1.1536-2.2345 6.1464-7.3495zm-33.969 0.02348-0.95581 3.8924-2.3739 2.4408-2.2774-2.6614-0.37114-3.6757z" fill="#888" stroke="#999" stroke-width=".26458px"/></g></svg>
