<svg width="53.816mm" height="65.459mm" version="1.1" viewBox="0 0 53.816 65.459" xmlns="http://www.w3.org/2000/svg">
 <g transform="translate(-23.121,-16.323)">
  <path transform="translate(23.121,16.323)" d="m38.51 41.61 0.58559 1.3981 1.0901-1.5348 2.0761-0.40414-1.1586-0.9181-0.89545-0.33423-0.7103-0.86293zm-4.1313-41.525 0.57337 1.2466 0.8078-1.2348zm19.338 54.758-1.4316-0.45241-0.95368-3.7315-0.09278-2.5353-0.64242-1.3613-0.77059-0.22466-0.53954-1.1809-1.1108-0.82338-1.4126-2.6365-1.1613-1.0863-1.3589 0.45814-2.0833-0.82361-2.2009-1.7913-0.23684-2.048-2.5612-8.4037 0.42319-9.4542-0.87477-5.7204-0.02446-2.9577-1.2226-4.5356 0.04691-2.3892-0.09409-1.4749 0.92348-1.4998 17.426-0.025206zm-14.362 2.9889 2.0406-1.5908 1.3239-1.1324 3.417-0.94648 1.5928 0.54287 1.8679-1.3468 1.151-1.5602 0.0098-2.7174-0.53013-1.6805-0.78504-0.44972-0.53373-0.9863-1.0247-0.78556-0.83779-1.8138-1.0148-1.0691-0.77303-0.34251-1.2844 0.29799-0.91684-0.72516-2.6494 0.68202-0.81048 1.4444-0.52771 1.5303 0.12869 2.0741 0.40605 2.5371-1.0569 2.8083-0.4008 2.2336 0.27188 1.2491zm0.02341 7.4669-0.26686-1.1131 0.63767-0.84919-0.39677-1.4202 0.11396-1.7043 0.55033-1.4383 1.6618-1.8717 0.70304-0.9298 1.7461-0.58234 0.57685 0.51236 0.55375 0.09625 0.68387-0.6668 1.057 0.46095 1.4975-0.94909 1.3586-1.1528 1.045-0.87496 0.58363 0.52147 0.30686 1.2834 1.0574 1.465 0.85852 0.90912-6.68e-4 8.3651zm-39.242-51.27 1.8188-3.1504 0.67451-0.093997 0.62133-0.75673 1.4436-0.41073 0.81956-1.0703 1.314-0.4423 1.6971-1.1808 0.73377-1.4889 0.82538-0.45664 1.5285-0.15764 0.88706-0.7024 1.1148-0.79125 2.4289-1.4516 2.4552-1.2548 0.58292-0.46352-18.953-0.034095zm0.02259 16.128 2.7328 1.1923 4.0975-0.75535 0.62763-0.97633 1.9774 0.90389 1.282-0.16651 1.2238 1.0167 4.6663 1.2639 2.3204-0.16439 4.8466 0.86446 1.6657-1.0442 2.6295-2.6221 1.0014 0.27917 2.055-2.1276 2.63 1.0021 2.3356-0.50949 0.69968-2.842 0.05091-5.003-0.84593-5.1566-0.40674-5.6628-0.81821-3.7166-0.11812-3.1138-0.09799-1.0445-0.81068-1.6918-12.587 0.12478-2.4883 0.83319-4.6564 2.5844-1.4673 1.2084-0.60504 0.79231-2.1201 0.029314-1.0798 1.6926-1.9276 1.5254-1.2979 0.26852-1.3527 1.3855-0.95911 0.027008-0.38638 0.53409-0.5663 0.16334-1.9396 3.3824-0.33525 0.81878zm0.003224 0.69676 2.7824 1.1093 1.5721-0.40373 2.439-0.198 1.5205-0.65783 1.1502 0.44007 0.71379-0.21934 0.8781 0.58334 2.4271 0.70236 1.8255 0.42054 0.82278 0.45674 1.3263 0.31501 1.7484-0.41912 1.719 0.32152 2.9763 0.72609 3.4877-2.5894 0.56533-1.0664 0.90982 0.44017 1.949-1.6906 1.6217 0.02334 2.3601 0.54084 1.6757-0.72188 1.1831 3.7595 1.0794 3.1478 0.04703 2.8229-0.77378 1.0959-0.37904 2.1579 0.39007 1.1427-0.11337 2.0048 0.73364 4.6428-0.91657 2.7941 0.14354 3.8529 0.15445 2.3842 0.08342 2.6376 0.0882 3.0766-0.44676 0.85408-2.3488-0.01332-0.69237-1.3229-1.5039 1.3656-33.258-0.05804z"  fill="#000" stroke="#000" stroke-width=".26458px"/>
 </g>
</svg>
