<svg width="53.816mm" height="65.459mm" version="1.1" viewBox="0 0 53.816 65.459" xmlns="http://www.w3.org/2000/svg">
 <g transform="translate(-39.771 -43.458)">
  <path d="m50.511 108.83 0.1605-2.6103 6.6877-5.1582 1.7029 2.9505 0.68644 1.5292 0.58297 3.3094zm42.958-0.0433-30.272-0.0126-1.3311-0.60661-0.55323-1.1674-0.94609-2.8427-1.4861-4.0402 0.2209-1.7609 1.2937-1.2156 3.0649-5.3286-0.19386-2.6818-0.27629-0.86085 1.0326-0.42499 1.7698-5.3642 1.8506-1.9499 0.73128-2.3808 1.6841-2.1546 6.7688 2.3897 2.357 2.0735 1.8671 0.1576 1.7158 1.5845 2.2878 0.26475 1.3524 0.65182 1.4141 0.0046 1.9357-1.0184 1.1121-0.88228 2.5828-0.48294zm-0.02418-65.144 0.03236 36.017-2.0875 0.27531-2.1952 1.1952-1.9011 0.94196-2.1279-0.62907-1.4807-0.03231-1.846-1.2934-1.3505-0.46983-1.8984-1.6584-7.9283-2.8091-1.2529-8.0632-1.5295-8.5264-1.6765-3.9788-1.5014-1.4145-1.2582-2.0069-0.78214-1.4519-1.6145-3.6918-0.79054-1.2915-0.33386-1.1676zm-53.002 32.464 0.80308 3.2435-1.3714-0.51667 0.02673-3.2496zm0.49364-0.42673-1.0176-1.0006-0.08974-31.011 16.905-0.07756 2.4209 2.3667 2.4143 3.3729 1.1346 2.7458 1.9956 2.432 2.6897 3.9409 2.3783 16.497-2.1562 2.0738-0.98515 2.5957-1.8991 2.122-1.5783 5.5878-1.4738 0.97954 0.8503 1.5529-0.8864 3.2818-1.6533 3.1097-1.5773 0.8503-0.61225 1.785-8.7747 8.0303-0.49824 1.8607-8.6099 0.0444 0.03028-29.251 1.0261 0.29735 0.53838 0.09664 0.66486 0.93074 0.46403-0.74885 0.7776 0.0043 2.7765-2.5211 0.86653-2.1973-1.4442 1.768-1.8322 1.8223-2.0779-0.06077z" fill="#000" stroke="#000" stroke-width=".26458px"/>
 </g>
</svg>
