<svg width="53.816mm" height="65.459mm" version="1.1" viewBox="0 0 53.816 65.459" xmlns="http://www.w3.org/2000/svg">
 <g transform="translate(-23.121,-16.323)">
  <path d="m41.15 81.641-1.4146-1.4669-2.9296 1.4732zm-4.3643-62.767 0.13001 1.4971 1.675 2.4006-0.30944 6.7927 5.2088 3.9617 2.2804-0.32219 4.9692 4.6165 1.0427 2.7769 1.7959 0.04756 1.786 0.88813 0.29827 0.81589 0.14101 3.8783-1.9297 1.9884-1.8617 0.55437-1.0779 1.6293-4.3646 2.6647-2.637 0.81552-4.8174-0.52578-2.7854 2.299-1.7543 0.20746-3.0975 1.6963-5.605-2.2565-2.5968-0.46471-0.01576-38.392 11.922 0.03418 1.0122 0.91242zm19.647 22.225-1.3807-0.80702-2.2453-0.73555-1.2575-2.0861-3.6635-2.7858-1.7187-2.1452-2.5833-0.23218-4.2414-2.6656-0.02936-3.5642 1.1536-2.2345 3.0862-3.6918 0.45616-2.0855 1.2484-1.5959 31.531 0.0067 0.0062 34.337-1.2572 0.87799-2.5412 1.2304-1.2358 1.2702-0.4115 1.9661-1.8418 1.4395-1.5875 1.1823 2.3844-1.2617 1.9606-0.46049 0.6448-2.3366 1.4526-1.0203 2.4463-0.858 0.01741 28.794-8.4774 0.02306-4.9737-4.2383 0.13354 2.1125 2.1392 2.1083-23.068-0.0062-2.0438-1.6455 0.10345-0.43943 1.3373-1.6284 1.9811-0.0065 1.0987-2.7753 2.9473-3.2368 0.0658-0.98535-0.28542-1.733-0.04912-0.99826-0.12424-0.88836-1.1157-1.0454-2.0331-2.2369 1.5843 2.4067 0.39228 1.0949 0.9183 0.60688-0.2822 1.1022 0.40859 1.6324-3.4527 3.8674-1.181 0.88406-0.74009 1.5431-7.3635 4.4911-11.474-0.01388 0.02373-25.023 1.9697-0.15136 6.5744 1.4777 2.8062-1.5148 1.6411 0.10353 2.6699-2.3287 4.2178 0.33571 3.8709-1.0983 2.739-1.439 2.2833-0.50385 0.7867-1.543 1.6652-1.2544 1.9884-2.1421 3.4444-1.745 0.43616-4.9128-1.089-1.8551zm2.7072-1.9686 0.52874 1.137-0.29494 3.9428-2.7656 1.4636-0.26764-3.1711 0.36822-0.8676zm-15.869-22.678-0.9635 3.9326-2.3739 2.4408-2.2774-2.6614-0.38786-3.7079z" fill="#000" stroke="#000" stroke-width=".26458px"/>
 </g>
</svg>
